<svg xmlns="http://www.w3.org/2000/svg" xmlns:xlink="http://www.w3.org/1999/xlink" width="500" zoomAndPan="magnify" viewBox="0 0 375 374.999991" height="500" preserveAspectRatio="xMidYMid meet" version="1.0"><defs><clipPath id="8ed24c3f03"><path d="M 14 102 L 361 102 L 361 345.601562 L 14 345.601562 Z M 14 102 " clip-rule="nonzero"/></clipPath></defs><rect x="-37.5" width="450" fill="#ffffff" y="-37.499999" height="449.999989" fill-opacity="1"/><rect x="-37.5" width="450" fill="#a4ffaf" y="-37.499999" height="449.999989" fill-opacity="1"/><path fill="#a4ffaf" d="M 22.039062 352.960938 L 352.925781 352.960938 L 352.925781 22.074219 L 22.039062 22.074219 Z M 11.019531 375 C 4.925781 375 0 370.074219 0 363.980469 L 0 11.019531 C 0 4.925781 4.925781 0 11.019531 0 L 363.980469 0 C 370.039062 0 375 4.925781 375 11.019531 L 375 363.980469 C 375 370.074219 370.039062 375 363.980469 375 L 11.019531 375 " fill-opacity="1" fill-rule="nonzero"/><g clip-path="url(#8ed24c3f03)"><path fill="#000000" d="M 356.421875 125 C 361.59375 119.835938 361.59375 111.460938 356.421875 106.296875 C 351.246094 101.132812 342.855469 101.132812 337.683594 106.296875 L 135.453125 268.011719 L 37.5 210.386719 C 32.328125 205.21875 23.9375 205.21875 18.761719 210.386719 C 13.589844 215.550781 13.589844 223.925781 18.761719 229.089844 L 135.453125 345.570312 Z M 356.421875 125 " fill-opacity="1" fill-rule="nonzero"/></g></svg>