<svg xmlns="http://www.w3.org/2000/svg" xmlns:xlink="http://www.w3.org/1999/xlink" width="40" zoomAndPan="magnify" viewBox="0 0 30 30.000001" height="40" preserveAspectRatio="xMidYMid meet" version="1.0"><defs><clipPath id="5cbe952fa3"><path d="M 0.484375 8.050781 L 4.996094 8.050781 L 4.996094 20.984375 L 0.484375 20.984375 Z M 0.484375 8.050781 " clip-rule="nonzero"/></clipPath><clipPath id="561a852a86"><path d="M 25.003906 8.050781 L 29.355469 8.050781 L 29.355469 20.976562 L 25.003906 20.976562 Z M 25.003906 8.050781 " clip-rule="nonzero"/></clipPath><clipPath id="2f31d8ec56"><path d="M 8.636719 8.050781 L 13.148438 8.050781 L 13.148438 20.984375 L 8.636719 20.984375 Z M 8.636719 8.050781 " clip-rule="nonzero"/></clipPath><clipPath id="3fb4e16456"><path d="M 16.777344 8.050781 L 21.292969 8.050781 L 21.292969 20.984375 L 16.777344 20.984375 Z M 16.777344 8.050781 " clip-rule="nonzero"/></clipPath></defs><g clip-path="url(#5cbe952fa3)"><path fill="#f8cd65" d="M 0.484375 8.050781 L 4.996094 8.050781 L 4.996094 20.972656 L 0.484375 20.972656 Z M 0.484375 8.050781 " fill-opacity="1" fill-rule="nonzero"/></g><g clip-path="url(#561a852a86)"><path stroke-linecap="butt" transform="matrix(0.725806, 0, 0, 0.725806, 25.002707, 8.049831)" fill="none" stroke-linejoin="miter" d="M 0.00165187 0.00130973 L 6.217798 0.00130973 L 6.217798 17.810164 L 0.00165187 17.810164 Z M 0.00165187 0.00130973 " stroke="#e6e5ea" stroke-width="2" stroke-opacity="1" stroke-miterlimit="4"/></g><g clip-path="url(#2f31d8ec56)"><path fill="#f8cd65" d="M 8.636719 8.050781 L 13.148438 8.050781 L 13.148438 20.972656 L 8.636719 20.972656 Z M 8.636719 8.050781 " fill-opacity="1" fill-rule="nonzero"/></g><g clip-path="url(#3fb4e16456)"><path fill="#f8cd65" d="M 16.777344 8.050781 L 21.292969 8.050781 L 21.292969 20.972656 L 16.777344 20.972656 Z M 16.777344 8.050781 " fill-opacity="1" fill-rule="nonzero"/></g></svg>