<svg xmlns="http://www.w3.org/2000/svg" xmlns:xlink="http://www.w3.org/1999/xlink" width="40" zoomAndPan="magnify" viewBox="0 0 30 30.000001" height="40" preserveAspectRatio="xMidYMid meet" version="1.0"><defs><clipPath id="583633cf8f"><path d="M 0.484375 8.050781 L 4.996094 8.050781 L 4.996094 20.984375 L 0.484375 20.984375 Z M 0.484375 8.050781 " clip-rule="nonzero"/></clipPath><clipPath id="d9117208b2"><path d="M 8.636719 8.050781 L 13.148438 8.050781 L 13.148438 20.984375 L 8.636719 20.984375 Z M 8.636719 8.050781 " clip-rule="nonzero"/></clipPath><clipPath id="3a54a38734"><path d="M 16.777344 8.050781 L 21.292969 8.050781 L 21.292969 20.984375 L 16.777344 20.984375 Z M 16.777344 8.050781 " clip-rule="nonzero"/></clipPath><clipPath id="fbd4acd4e0"><path d="M 24.921875 8.050781 L 29.433594 8.050781 L 29.433594 20.984375 L 24.921875 20.984375 Z M 24.921875 8.050781 " clip-rule="nonzero"/></clipPath></defs><g clip-path="url(#583633cf8f)"><path fill="#a4ffaf" d="M 0.484375 8.050781 L 4.996094 8.050781 L 4.996094 20.972656 L 0.484375 20.972656 Z M 0.484375 8.050781 " fill-opacity="1" fill-rule="nonzero"/></g><g clip-path="url(#d9117208b2)"><path fill="#a4ffaf" d="M 8.636719 8.050781 L 13.148438 8.050781 L 13.148438 20.972656 L 8.636719 20.972656 Z M 8.636719 8.050781 " fill-opacity="1" fill-rule="nonzero"/></g><g clip-path="url(#3a54a38734)"><path fill="#a4ffaf" d="M 16.777344 8.050781 L 21.292969 8.050781 L 21.292969 20.972656 L 16.777344 20.972656 Z M 16.777344 8.050781 " fill-opacity="1" fill-rule="nonzero"/></g><g clip-path="url(#fbd4acd4e0)"><path fill="#a4ffaf" d="M 24.921875 8.050781 L 29.433594 8.050781 L 29.433594 20.972656 L 24.921875 20.972656 Z M 24.921875 8.050781 " fill-opacity="1" fill-rule="nonzero"/></g></svg>